<svg width="323" height="64" viewBox="0 0 323 64" fill="none" xmlns="http://www.w3.org/2000/svg">
<path d="M53.75 25C38 28.5 34.325 39.2975 30.685 48.345L33.9925 49.5L35.655 45.475C36.495 45.7725 37.37 46 38 46C57.25 46 62.5 16.25 62.5 16.25C60.75 19.75 48.5 20.1875 39.75 21.9375C31 23.6875 27.5 31.125 27.5 34.625C27.5 38.125 30.5625 41.1875 30.5625 41.1875C36.25 25 53.75 25 53.75 25Z" fill="#02DF82"/>
<path d="M83.584 31.24C82.608 31.24 81.712 31.12 80.896 30.88C80.08 30.624 79.344 30.248 78.688 29.752C78.032 29.256 77.448 28.656 76.936 27.952L78.976 25.648C79.76 26.736 80.528 27.488 81.28 27.904C82.032 28.32 82.88 28.528 83.824 28.528C84.368 28.528 84.864 28.448 85.312 28.288C85.76 28.112 86.112 27.88 86.368 27.592C86.624 27.288 86.752 26.944 86.752 26.56C86.752 26.288 86.696 26.04 86.584 25.816C86.488 25.576 86.336 25.368 86.128 25.192C85.92 25 85.664 24.824 85.36 24.664C85.056 24.504 84.712 24.368 84.328 24.256C83.944 24.144 83.52 24.04 83.056 23.944C82.176 23.768 81.408 23.536 80.752 23.248C80.096 22.944 79.544 22.576 79.096 22.144C78.648 21.696 78.32 21.2 78.112 20.656C77.904 20.096 77.8 19.464 77.8 18.76C77.8 18.056 77.952 17.408 78.256 16.816C78.576 16.224 79.008 15.712 79.552 15.28C80.096 14.848 80.728 14.512 81.448 14.272C82.168 14.032 82.944 13.912 83.776 13.912C84.72 13.912 85.56 14.024 86.296 14.248C87.048 14.472 87.704 14.808 88.264 15.256C88.84 15.688 89.312 16.216 89.68 16.84L87.616 18.88C87.296 18.384 86.936 17.976 86.536 17.656C86.136 17.32 85.704 17.072 85.24 16.912C84.776 16.736 84.288 16.648 83.776 16.648C83.2 16.648 82.696 16.728 82.264 16.888C81.848 17.048 81.52 17.28 81.28 17.584C81.04 17.872 80.92 18.224 80.92 18.64C80.92 18.96 80.992 19.248 81.136 19.504C81.28 19.744 81.48 19.96 81.736 20.152C82.008 20.344 82.352 20.512 82.768 20.656C83.184 20.8 83.656 20.928 84.184 21.04C85.064 21.216 85.856 21.456 86.56 21.76C87.264 22.048 87.864 22.4 88.36 22.816C88.856 23.216 89.232 23.68 89.488 24.208C89.744 24.72 89.872 25.296 89.872 25.936C89.872 27.04 89.608 27.992 89.08 28.792C88.568 29.576 87.84 30.184 86.896 30.616C85.952 31.032 84.848 31.24 83.584 31.24ZM93.3029 31V14.2H96.2549L102.375 24.16L100.647 24.136L106.839 14.2H109.647V31H106.551V24.688C106.551 23.248 106.583 21.952 106.647 20.8C106.727 19.648 106.855 18.504 107.031 17.368L107.415 18.4L102.207 26.44H100.623L95.5829 18.472L95.9189 17.368C96.0949 18.44 96.2149 19.544 96.2789 20.68C96.3589 21.8 96.3989 23.136 96.3989 24.688V31H93.3029ZM112.29 31L118.842 14.2H121.77L128.274 31H125.034L121.434 21.448C121.354 21.256 121.242 20.952 121.098 20.536C120.97 20.12 120.826 19.672 120.666 19.192C120.506 18.696 120.362 18.24 120.234 17.824C120.106 17.392 120.01 17.08 119.946 16.888L120.546 16.864C120.45 17.184 120.338 17.544 120.21 17.944C120.082 18.344 119.946 18.76 119.802 19.192C119.658 19.624 119.514 20.04 119.37 20.44C119.242 20.84 119.122 21.2 119.01 21.52L115.41 31H112.29ZM115.266 27.16L116.346 24.448H124.002L125.154 27.16H115.266ZM130.92 31V14.2H138.216C139.224 14.2 140.144 14.44 140.976 14.92C141.808 15.384 142.464 16.024 142.944 16.84C143.44 17.64 143.688 18.544 143.688 19.552C143.688 20.512 143.44 21.4 142.944 22.216C142.464 23.016 141.808 23.656 140.976 24.136C140.16 24.6 139.24 24.832 138.216 24.832H133.968V31H130.92ZM140.664 31L136.392 23.416L139.608 22.816L144.36 31.024L140.664 31ZM133.968 22.12H138.24C138.704 22.12 139.104 22.016 139.44 21.808C139.792 21.584 140.064 21.28 140.256 20.896C140.448 20.512 140.544 20.088 140.544 19.624C140.544 19.096 140.424 18.64 140.184 18.256C139.944 17.872 139.608 17.568 139.176 17.344C138.744 17.12 138.248 17.008 137.688 17.008H133.968V22.12ZM150.546 31V17.08H145.746V14.2H158.61V17.08H153.666V31H150.546Z" fill="black"/>
<path d="M168.725 31V14.2H171.845V31H168.725ZM170.165 24.112V21.28H178.829V24.112H170.165ZM170.165 17.08V14.2H179.861V17.08H170.165ZM180.025 31L186.577 14.2H189.505L196.009 31H192.769L189.169 21.448C189.089 21.256 188.977 20.952 188.833 20.536C188.705 20.12 188.561 19.672 188.401 19.192C188.241 18.696 188.097 18.24 187.969 17.824C187.841 17.392 187.745 17.08 187.681 16.888L188.281 16.864C188.185 17.184 188.073 17.544 187.945 17.944C187.817 18.344 187.681 18.76 187.537 19.192C187.393 19.624 187.249 20.04 187.105 20.44C186.977 20.84 186.857 21.2 186.745 21.52L183.145 31H180.025ZM183.001 27.16L184.081 24.448H191.737L192.889 27.16H183.001ZM198.654 31V14.2H205.95C206.958 14.2 207.878 14.44 208.71 14.92C209.542 15.384 210.198 16.024 210.678 16.84C211.174 17.64 211.422 18.544 211.422 19.552C211.422 20.512 211.174 21.4 210.678 22.216C210.198 23.016 209.542 23.656 208.71 24.136C207.894 24.6 206.974 24.832 205.95 24.832H201.702V31H198.654ZM208.398 31L204.126 23.416L207.342 22.816L212.094 31.024L208.398 31ZM201.702 22.12H205.974C206.438 22.12 206.838 22.016 207.174 21.808C207.526 21.584 207.798 21.28 207.99 20.896C208.182 20.512 208.278 20.088 208.278 19.624C208.278 19.096 208.158 18.64 207.918 18.256C207.678 17.872 207.342 17.568 206.91 17.344C206.478 17.12 205.982 17.008 205.422 17.008H201.702V22.12ZM215.389 31V14.2H218.341L224.461 24.16L222.733 24.136L228.925 14.2H231.733V31H228.637V24.688C228.637 23.248 228.669 21.952 228.733 20.8C228.813 19.648 228.941 18.504 229.117 17.368L229.501 18.4L224.293 26.44H222.709L217.669 18.472L218.005 17.368C218.181 18.44 218.301 19.544 218.365 20.68C218.445 21.8 218.485 23.136 218.485 24.688V31H215.389ZM241.431 31L247.983 14.2H250.911L257.415 31H254.175L250.575 21.448C250.495 21.256 250.383 20.952 250.239 20.536C250.111 20.12 249.967 19.672 249.807 19.192C249.647 18.696 249.503 18.24 249.375 17.824C249.247 17.392 249.151 17.08 249.087 16.888L249.687 16.864C249.591 17.184 249.479 17.544 249.351 17.944C249.223 18.344 249.087 18.76 248.943 19.192C248.799 19.624 248.655 20.04 248.511 20.44C248.383 20.84 248.263 21.2 248.151 21.52L244.551 31H241.431ZM244.407 27.16L245.487 24.448H253.143L254.295 27.16H244.407ZM270.019 29.824V16.192L270.907 17.344L267.499 19.072L266.803 16.336L271.387 13.96H273.115V29.824H270.019ZM267.211 31V28.12H275.995V31H267.211ZM280.254 31.264C279.678 31.264 279.23 31.096 278.91 30.76C278.606 30.424 278.454 29.952 278.454 29.344C278.454 28.784 278.614 28.328 278.934 27.976C279.27 27.608 279.71 27.424 280.254 27.424C280.83 27.424 281.27 27.592 281.574 27.928C281.894 28.248 282.054 28.72 282.054 29.344C282.054 29.904 281.886 30.368 281.55 30.736C281.23 31.088 280.798 31.264 280.254 31.264ZM290.677 31.24C289.317 31.24 288.149 30.896 287.173 30.208C286.213 29.504 285.469 28.512 284.941 27.232C284.429 25.936 284.173 24.392 284.173 22.6C284.173 20.808 284.429 19.272 284.941 17.992C285.469 16.696 286.213 15.704 287.173 15.016C288.149 14.312 289.317 13.96 290.677 13.96C292.037 13.96 293.205 14.312 294.181 15.016C295.157 15.704 295.901 16.696 296.413 17.992C296.941 19.272 297.205 20.808 297.205 22.6C297.205 24.392 296.941 25.936 296.413 27.232C295.901 28.512 295.157 29.504 294.181 30.208C293.205 30.896 292.037 31.24 290.677 31.24ZM290.677 28.504C291.797 28.504 292.661 27.992 293.269 26.968C293.893 25.928 294.205 24.472 294.205 22.6C294.205 20.712 293.893 19.248 293.269 18.208C292.661 17.168 291.797 16.648 290.677 16.648C289.557 16.648 288.685 17.168 288.061 18.208C287.453 19.248 287.149 20.712 287.149 22.6C287.149 24.472 287.453 25.928 288.061 26.968C288.685 27.992 289.557 28.504 290.677 28.504Z" fill="#02DF82"/>
<path d="M76.192 54L79.468 45.6H80.932L84.184 54H82.564L80.764 49.224C80.724 49.128 80.668 48.976 80.596 48.768C80.532 48.56 80.46 48.336 80.38 48.096C80.3 47.848 80.228 47.62 80.164 47.412C80.1 47.196 80.052 47.04 80.02 46.944L80.32 46.932C80.272 47.092 80.216 47.272 80.152 47.472C80.088 47.672 80.02 47.88 79.948 48.096C79.876 48.312 79.804 48.52 79.732 48.72C79.668 48.92 79.608 49.1 79.552 49.26L77.752 54H76.192ZM77.68 52.08L78.22 50.724H82.048L82.624 52.08H77.68ZM85.5069 54V45.6H91.0029V47.016H87.0429V52.584H91.0509V54H85.5069ZM86.2269 50.4V49.008H90.3909V50.4H86.2269ZM93.0069 54V45.6H96.6549C97.1589 45.6 97.6189 45.72 98.0349 45.96C98.4509 46.192 98.7789 46.512 99.0189 46.92C99.2669 47.32 99.3909 47.772 99.3909 48.276C99.3909 48.756 99.2669 49.2 99.0189 49.608C98.7789 50.008 98.4509 50.328 98.0349 50.568C97.6269 50.8 97.1669 50.916 96.6549 50.916H94.5309V54H93.0069ZM97.8789 54L95.7429 50.208L97.3509 49.908L99.7269 54.012L97.8789 54ZM94.5309 49.56H96.6669C96.8989 49.56 97.0989 49.508 97.2669 49.404C97.4429 49.292 97.5789 49.14 97.6749 48.948C97.7709 48.756 97.8189 48.544 97.8189 48.312C97.8189 48.048 97.7589 47.82 97.6389 47.628C97.5189 47.436 97.3509 47.284 97.1349 47.172C96.9189 47.06 96.6709 47.004 96.3909 47.004H94.5309V49.56ZM104.881 54.12C104.281 54.12 103.725 54.012 103.213 53.796C102.701 53.58 102.253 53.28 101.869 52.896C101.493 52.504 101.201 52.044 100.993 51.516C100.785 50.988 100.681 50.412 100.681 49.788C100.681 49.164 100.785 48.588 100.993 48.06C101.201 47.532 101.493 47.076 101.869 46.692C102.253 46.3 102.701 45.996 103.213 45.78C103.725 45.564 104.281 45.456 104.881 45.456C105.489 45.456 106.049 45.564 106.561 45.78C107.073 45.996 107.517 46.3 107.893 46.692C108.269 47.084 108.561 47.544 108.769 48.072C108.977 48.592 109.081 49.164 109.081 49.788C109.081 50.404 108.977 50.976 108.769 51.504C108.561 52.032 108.269 52.492 107.893 52.884C107.517 53.276 107.073 53.58 106.561 53.796C106.049 54.012 105.489 54.12 104.881 54.12ZM104.881 52.632C105.265 52.632 105.613 52.564 105.925 52.428C106.245 52.284 106.521 52.084 106.753 51.828C106.985 51.564 107.165 51.26 107.293 50.916C107.429 50.572 107.497 50.196 107.497 49.788C107.497 49.38 107.429 49.004 107.293 48.66C107.165 48.316 106.985 48.016 106.753 47.76C106.521 47.496 106.245 47.296 105.925 47.16C105.613 47.016 105.265 46.944 104.881 46.944C104.505 46.944 104.157 47.016 103.837 47.16C103.517 47.296 103.241 47.492 103.009 47.748C102.777 48.004 102.597 48.304 102.469 48.648C102.341 48.992 102.277 49.372 102.277 49.788C102.277 50.196 102.341 50.576 102.469 50.928C102.597 51.272 102.777 51.572 103.009 51.828C103.241 52.084 103.517 52.284 103.837 52.428C104.157 52.564 104.505 52.632 104.881 52.632ZM110.773 54V45.6H114.265C114.745 45.6 115.177 45.716 115.561 45.948C115.953 46.18 116.265 46.496 116.497 46.896C116.729 47.296 116.845 47.744 116.845 48.24C116.845 48.744 116.729 49.2 116.497 49.608C116.265 50.008 115.953 50.328 115.561 50.568C115.177 50.808 114.745 50.928 114.265 50.928H112.333V54H110.773ZM112.333 49.488H114.157C114.357 49.488 114.537 49.432 114.697 49.32C114.865 49.208 114.997 49.06 115.093 48.876C115.197 48.692 115.249 48.484 115.249 48.252C115.249 48.02 115.197 47.816 115.093 47.64C114.997 47.456 114.865 47.312 114.697 47.208C114.537 47.096 114.357 47.04 114.157 47.04H112.333V49.488ZM122.119 54.12C121.519 54.12 120.963 54.012 120.451 53.796C119.939 53.58 119.491 53.28 119.107 52.896C118.731 52.504 118.439 52.044 118.231 51.516C118.023 50.988 117.919 50.412 117.919 49.788C117.919 49.164 118.023 48.588 118.231 48.06C118.439 47.532 118.731 47.076 119.107 46.692C119.491 46.3 119.939 45.996 120.451 45.78C120.963 45.564 121.519 45.456 122.119 45.456C122.727 45.456 123.287 45.564 123.799 45.78C124.311 45.996 124.755 46.3 125.131 46.692C125.507 47.084 125.799 47.544 126.007 48.072C126.215 48.592 126.319 49.164 126.319 49.788C126.319 50.404 126.215 50.976 126.007 51.504C125.799 52.032 125.507 52.492 125.131 52.884C124.755 53.276 124.311 53.58 123.799 53.796C123.287 54.012 122.727 54.12 122.119 54.12ZM122.119 52.632C122.503 52.632 122.851 52.564 123.163 52.428C123.483 52.284 123.759 52.084 123.991 51.828C124.223 51.564 124.403 51.26 124.531 50.916C124.667 50.572 124.735 50.196 124.735 49.788C124.735 49.38 124.667 49.004 124.531 48.66C124.403 48.316 124.223 48.016 123.991 47.76C123.759 47.496 123.483 47.296 123.163 47.16C122.851 47.016 122.503 46.944 122.119 46.944C121.743 46.944 121.395 47.016 121.075 47.16C120.755 47.296 120.479 47.492 120.247 47.748C120.015 48.004 119.835 48.304 119.707 48.648C119.579 48.992 119.515 49.372 119.515 49.788C119.515 50.196 119.579 50.576 119.707 50.928C119.835 51.272 120.015 51.572 120.247 51.828C120.479 52.084 120.755 52.284 121.075 52.428C121.395 52.564 121.743 52.632 122.119 52.632ZM128.011 54V45.6H129.415L134.287 52.164L134.023 52.212C133.991 51.988 133.963 51.76 133.939 51.528C133.915 51.288 133.891 51.04 133.867 50.784C133.851 50.528 133.835 50.26 133.819 49.98C133.811 49.7 133.803 49.408 133.795 49.104C133.787 48.792 133.783 48.464 133.783 48.12V45.6H135.331V54H133.903L129.007 47.532L129.319 47.448C129.359 47.896 129.391 48.28 129.415 48.6C129.447 48.912 129.471 49.184 129.487 49.416C129.503 49.64 129.515 49.828 129.523 49.98C129.539 50.132 129.547 50.272 129.547 50.4C129.555 50.52 129.559 50.636 129.559 50.748V54H128.011ZM137.333 54V52.62H138.713V46.98H137.333V45.6H141.653V46.98H140.273V52.62H141.653V54H137.333ZM144.88 51.492L144.64 49.944L148.96 45.6H150.916L144.88 51.492ZM143.644 54V45.6H145.204V54H143.644ZM149.152 54L145.972 49.764L147.076 48.816L151.048 54H149.152ZM155.731 54V52.62H157.111V46.98H155.731V45.6H160.051V46.98H158.671V52.62H160.051V54H155.731ZM165.49 54.12C164.89 54.12 164.334 54.012 163.822 53.796C163.31 53.58 162.862 53.28 162.478 52.896C162.102 52.504 161.81 52.044 161.602 51.516C161.394 50.988 161.29 50.412 161.29 49.788C161.29 49.164 161.394 48.588 161.602 48.06C161.81 47.532 162.102 47.076 162.478 46.692C162.862 46.3 163.31 45.996 163.822 45.78C164.334 45.564 164.89 45.456 165.49 45.456C166.098 45.456 166.658 45.564 167.17 45.78C167.682 45.996 168.126 46.3 168.502 46.692C168.878 47.084 169.17 47.544 169.378 48.072C169.586 48.592 169.69 49.164 169.69 49.788C169.69 50.404 169.586 50.976 169.378 51.504C169.17 52.032 168.878 52.492 168.502 52.884C168.126 53.276 167.682 53.58 167.17 53.796C166.658 54.012 166.098 54.12 165.49 54.12ZM165.49 52.632C165.874 52.632 166.222 52.564 166.534 52.428C166.854 52.284 167.13 52.084 167.362 51.828C167.594 51.564 167.774 51.26 167.902 50.916C168.038 50.572 168.106 50.196 168.106 49.788C168.106 49.38 168.038 49.004 167.902 48.66C167.774 48.316 167.594 48.016 167.362 47.76C167.13 47.496 166.854 47.296 166.534 47.16C166.222 47.016 165.874 46.944 165.49 46.944C165.114 46.944 164.766 47.016 164.446 47.16C164.126 47.296 163.85 47.492 163.618 47.748C163.386 48.004 163.206 48.304 163.078 48.648C162.95 48.992 162.886 49.372 162.886 49.788C162.886 50.196 162.95 50.576 163.078 50.928C163.206 51.272 163.386 51.572 163.618 51.828C163.85 52.084 164.126 52.284 164.446 52.428C164.766 52.564 165.114 52.632 165.49 52.632ZM172.699 54V47.04H170.299V45.6H176.731V47.04H174.259V54H172.699ZM181.788 54V45.6H187.284V47.016H183.324V52.584H187.332V54H181.788ZM182.508 50.4V49.008H186.672V50.4H182.508ZM189.288 54V45.6H192.66C193.268 45.6 193.816 45.7 194.304 45.9C194.8 46.1 195.224 46.388 195.576 46.764C195.936 47.14 196.208 47.584 196.392 48.096C196.584 48.608 196.68 49.176 196.68 49.8C196.68 50.424 196.584 50.996 196.392 51.516C196.208 52.028 195.94 52.472 195.588 52.848C195.236 53.216 194.812 53.5 194.316 53.7C193.82 53.9 193.268 54 192.66 54H189.288ZM190.848 52.788L190.728 52.56H192.6C192.992 52.56 193.34 52.496 193.644 52.368C193.956 52.24 194.22 52.056 194.436 51.816C194.652 51.576 194.816 51.288 194.928 50.952C195.04 50.608 195.096 50.224 195.096 49.8C195.096 49.376 195.04 48.996 194.928 48.66C194.816 48.316 194.648 48.024 194.424 47.784C194.208 47.544 193.948 47.36 193.644 47.232C193.34 47.104 192.992 47.04 192.6 47.04H190.692L190.848 46.836V52.788ZM202.186 54.12C201.554 54.12 200.97 54.012 200.434 53.796C199.898 53.572 199.43 53.264 199.03 52.872C198.638 52.48 198.334 52.024 198.118 51.504C197.902 50.976 197.794 50.404 197.794 49.788C197.794 49.18 197.902 48.616 198.118 48.096C198.342 47.568 198.654 47.112 199.054 46.728C199.454 46.336 199.922 46.032 200.458 45.816C201.002 45.6 201.586 45.492 202.21 45.492C202.65 45.492 203.074 45.552 203.482 45.672C203.89 45.792 204.258 45.96 204.586 46.176C204.914 46.392 205.186 46.636 205.402 46.908L204.418 47.94C204.194 47.724 203.962 47.544 203.722 47.4C203.49 47.256 203.246 47.144 202.99 47.064C202.734 46.984 202.47 46.944 202.198 46.944C201.798 46.944 201.426 47.016 201.082 47.16C200.746 47.304 200.45 47.504 200.194 47.76C199.946 48.016 199.75 48.316 199.606 48.66C199.462 49.004 199.39 49.38 199.39 49.788C199.39 50.18 199.462 50.552 199.606 50.904C199.758 51.256 199.966 51.564 200.23 51.828C200.494 52.092 200.798 52.3 201.142 52.452C201.494 52.596 201.866 52.668 202.258 52.668C202.554 52.668 202.83 52.624 203.086 52.536C203.342 52.448 203.57 52.328 203.77 52.176C203.97 52.016 204.122 51.832 204.226 51.624C204.338 51.416 204.394 51.192 204.394 50.952V50.688L204.61 50.94H202.126V49.548H205.93C205.946 49.636 205.958 49.736 205.966 49.848C205.974 49.952 205.978 50.056 205.978 50.16C205.986 50.256 205.99 50.34 205.99 50.412C205.99 50.964 205.894 51.468 205.702 51.924C205.51 52.372 205.238 52.76 204.886 53.088C204.542 53.416 204.138 53.672 203.674 53.856C203.218 54.032 202.722 54.12 202.186 54.12ZM207.628 54V45.6H213.124V47.016H209.164V52.584H213.172V54H207.628ZM208.348 50.4V49.008H212.512V50.4H208.348ZM221.319 54.12C220.831 54.12 220.383 54.06 219.975 53.94C219.567 53.812 219.199 53.624 218.871 53.376C218.543 53.128 218.251 52.828 217.995 52.476L219.015 51.324C219.407 51.868 219.791 52.244 220.167 52.452C220.543 52.66 220.967 52.764 221.439 52.764C221.711 52.764 221.959 52.724 222.183 52.644C222.407 52.556 222.583 52.44 222.711 52.296C222.839 52.144 222.903 51.972 222.903 51.78C222.903 51.644 222.875 51.52 222.819 51.408C222.771 51.288 222.695 51.184 222.591 51.096C222.487 51 222.359 50.912 222.207 50.832C222.055 50.752 221.883 50.684 221.691 50.628C221.499 50.572 221.287 50.52 221.055 50.472C220.615 50.384 220.231 50.268 219.903 50.124C219.575 49.972 219.299 49.788 219.075 49.572C218.851 49.348 218.687 49.1 218.583 48.828C218.479 48.548 218.427 48.232 218.427 47.88C218.427 47.528 218.503 47.204 218.655 46.908C218.815 46.612 219.031 46.356 219.303 46.14C219.575 45.924 219.891 45.756 220.251 45.636C220.611 45.516 220.999 45.456 221.415 45.456C221.887 45.456 222.307 45.512 222.675 45.624C223.051 45.736 223.379 45.904 223.659 46.128C223.947 46.344 224.183 46.608 224.367 46.92L223.335 47.94C223.175 47.692 222.995 47.488 222.795 47.328C222.595 47.16 222.379 47.036 222.147 46.956C221.915 46.868 221.671 46.824 221.415 46.824C221.127 46.824 220.875 46.864 220.659 46.944C220.451 47.024 220.287 47.14 220.167 47.292C220.047 47.436 219.987 47.612 219.987 47.82C219.987 47.98 220.023 48.124 220.095 48.252C220.167 48.372 220.267 48.48 220.395 48.576C220.531 48.672 220.703 48.756 220.911 48.828C221.119 48.9 221.355 48.964 221.619 49.02C222.059 49.108 222.455 49.228 222.807 49.38C223.159 49.524 223.459 49.7 223.707 49.908C223.955 50.108 224.143 50.34 224.271 50.604C224.399 50.86 224.463 51.148 224.463 51.468C224.463 52.02 224.331 52.496 224.067 52.896C223.811 53.288 223.447 53.592 222.975 53.808C222.503 54.016 221.951 54.12 221.319 54.12ZM228.235 54V49.812L228.319 50.4L224.923 45.6H226.747L229.339 49.32L228.775 49.284L231.115 45.6H232.867L229.615 50.532L229.795 49.716V54H228.235ZM236.401 54.12C235.913 54.12 235.465 54.06 235.057 53.94C234.649 53.812 234.281 53.624 233.953 53.376C233.625 53.128 233.333 52.828 233.077 52.476L234.097 51.324C234.489 51.868 234.873 52.244 235.249 52.452C235.625 52.66 236.049 52.764 236.521 52.764C236.793 52.764 237.041 52.724 237.265 52.644C237.489 52.556 237.665 52.44 237.793 52.296C237.921 52.144 237.985 51.972 237.985 51.78C237.985 51.644 237.957 51.52 237.901 51.408C237.853 51.288 237.777 51.184 237.673 51.096C237.569 51 237.441 50.912 237.289 50.832C237.137 50.752 236.965 50.684 236.773 50.628C236.581 50.572 236.369 50.52 236.137 50.472C235.697 50.384 235.313 50.268 234.985 50.124C234.657 49.972 234.381 49.788 234.157 49.572C233.933 49.348 233.769 49.1 233.665 48.828C233.561 48.548 233.509 48.232 233.509 47.88C233.509 47.528 233.585 47.204 233.737 46.908C233.897 46.612 234.113 46.356 234.385 46.14C234.657 45.924 234.973 45.756 235.333 45.636C235.693 45.516 236.081 45.456 236.497 45.456C236.969 45.456 237.389 45.512 237.757 45.624C238.133 45.736 238.461 45.904 238.741 46.128C239.029 46.344 239.265 46.608 239.449 46.92L238.417 47.94C238.257 47.692 238.077 47.488 237.877 47.328C237.677 47.16 237.461 47.036 237.229 46.956C236.997 46.868 236.753 46.824 236.497 46.824C236.209 46.824 235.957 46.864 235.741 46.944C235.533 47.024 235.369 47.14 235.249 47.292C235.129 47.436 235.069 47.612 235.069 47.82C235.069 47.98 235.105 48.124 235.177 48.252C235.249 48.372 235.349 48.48 235.477 48.576C235.613 48.672 235.785 48.756 235.993 48.828C236.201 48.9 236.437 48.964 236.701 49.02C237.141 49.108 237.537 49.228 237.889 49.38C238.241 49.524 238.541 49.7 238.789 49.908C239.037 50.108 239.225 50.34 239.353 50.604C239.481 50.86 239.545 51.148 239.545 51.468C239.545 52.02 239.413 52.496 239.149 52.896C238.893 53.288 238.529 53.592 238.057 53.808C237.585 54.016 237.033 54.12 236.401 54.12ZM242.941 54V47.04H240.541V45.6H246.973V47.04H244.501V54H242.941ZM248.503 54V45.6H253.999V47.016H250.039V52.584H254.047V54H248.503ZM249.223 50.4V49.008H253.387V50.4H249.223ZM256.003 54V45.6H257.479L260.539 50.58L259.675 50.568L262.771 45.6H264.175V54H262.627V50.844C262.627 50.124 262.643 49.476 262.675 48.9C262.715 48.324 262.779 47.752 262.867 47.184L263.059 47.7L260.455 51.72H259.663L257.143 47.736L257.311 47.184C257.399 47.72 257.459 48.272 257.491 48.84C257.531 49.4 257.551 50.068 257.551 50.844V54H256.003Z" fill="black"/>
</svg>
